<?xml version="1.0" encoding="UTF-8"?>
<!DOCTYPE svg PUBLIC "-//W3C//DTD SVG 1.1//EN" "http://www.w3.org/Graphics/SVG/1.1/DTD/svg11.dtd">
<!-- Creator: CorelDRAW X6 -->
<svg xmlns="http://www.w3.org/2000/svg" xml:space="preserve" width="38.7648mm" height="19.7504mm" version="1.1" style="shape-rendering:geometricPrecision; text-rendering:geometricPrecision; image-rendering:optimizeQuality; fill-rule:evenodd; clip-rule:evenodd"
viewBox="0 0 871 444"
 xmlns:xlink="http://www.w3.org/1999/xlink">
 <defs>
  <style type="text/css">
   <![CDATA[
    .str0 {stroke:#669999;stroke-width:1.71192}
    .fil1 {fill:#1A1A1A;fill-rule:nonzero}
    .fil0 {fill:#669999;fill-rule:nonzero}
   ]]>
  </style>
 </defs>
 <g id="Camada_x0020_1">
  <metadata id="CorelCorpID_0Corel-Layer"/>
  <g id="_247853152">
   <path class="fil0 str0" d="M50 10c1,-3 3,-4 5,-4 3,0 5,1 6,4l0 0c4,6 7,13 9,22 2,8 4,17 6,25l4 16 0 0c2,7 3,15 4,22 1,7 2,14 3,22 1,7 2,13 2,20 1,6 2,13 3,20l0 0c1,5 2,9 3,13 1,4 1,8 2,13l2 17 16 84 -2 2 0 2c0,-1 -1,-1 -3,-1 -2,0 -3,0 -3,0 0,0 0,0 0,-1l0 0 -2 -2c-4,-17 -8,-33 -12,-50 -3,-16 -7,-34 -10,-54l-1 -4c-1,0 -3,0 -6,0 -3,0 -6,0 -10,0 -4,0 -7,0 -10,0 -3,0 -5,0 -5,0 -3,0 -6,0 -11,0 -4,0 -8,0 -11,0l-1 5c-1,7 -2,15 -3,21 -1,7 -2,14 -3,21 -1,3 -1,6 -1,8 0,3 0,6 -1,8l0 0c0,1 0,3 -1,4 0,1 -1,3 -1,4 -1,6 -2,12 -3,17 -1,6 -2,12 -3,18l0 0c0,4 -2,6 -6,6 -2,0 -4,-1 -5,-2 -2,-1 -2,-2 -2,-4l1 -1c5,-25 10,-49 14,-73 4,-24 7,-50 10,-78 0,-4 1,-8 2,-13 1,-5 2,-10 3,-15l2 -12c2,-15 4,-28 7,-41 3,-13 6,-26 10,-39zm-1 53c-3,15 -5,30 -8,46 -3,15 -5,31 -7,47l-1 11c3,1 7,1 11,0 4,0 7,0 10,0 5,0 11,0 15,1 5,0 10,0 14,-1l-2 -15 0 0c-1,-10 -2,-19 -4,-29 -1,-10 -3,-20 -4,-29 -1,-6 -2,-12 -3,-18 -1,-7 -2,-13 -3,-20 -1,-7 -3,-13 -4,-19 -2,-6 -3,-11 -5,-15 -1,2 -2,5 -2,9 -1,4 -2,7 -2,11 -1,4 -1,8 -2,12 0,4 -1,8 -1,11zm136 26c3,2 5,3 7,5 2,2 3,3 5,6 0,0 0,0 0,0 0,0 0,0 0,0l0 0c-2,1 -4,2 -5,2 -5,0 -7,0 -7,-1 0,-1 0,-1 -1,-2l0 0c-1,0 -2,-1 -3,-2 -3,-2 -6,-3 -10,-5 -3,-1 -6,-2 -8,-2l-2 0c-7,3 -11,7 -13,13 -2,6 -3,13 -3,19 0,4 -1,7 -1,11 0,4 0,7 0,11 0,7 0,13 0,20 0,6 0,13 1,20 0,7 0,13 0,20 0,6 0,13 0,19 0,9 0,18 -1,28 0,10 -1,19 -2,28 -1,3 -2,5 -5,5 -2,0 -3,0 -5,-1 -2,-1 -2,-3 -3,-4 0,-1 0,-3 0,-5l0 -48c0,-7 0,-14 1,-21 0,-7 1,-14 1,-21 0,-6 0,-13 0,-19 0,-6 0,-12 -1,-19l0 -10c0,-2 0,-4 0,-6 0,-2 0,-4 0,-6 0,-4 0,-8 1,-12 1,-4 2,-8 4,-11 3,-6 7,-10 13,-14 6,-3 12,-5 18,-5 9,0 15,2 20,7l0 1zm12 11c0,1 0,1 0,1 0,0 0,1 0,1l0 -2c0,0 0,0 0,0 0,0 0,0 0,0zm1 0c0,0 -1,0 -1,0 0,0 1,0 1,0 0,0 -1,0 -1,0l0 0 1 0 0 1zm106 26c0,22 1,43 1,64 0,21 0,43 0,66 0,6 0,12 0,17 0,6 0,12 -1,17 0,6 -1,12 -1,17 0,6 0,11 0,17 0,4 0,7 0,11 0,4 0,8 1,11 0,4 1,9 1,13 0,5 0,9 0,14 0,13 -1,26 -2,38l0 8c0,1 -1,2 -3,3 -2,1 -4,2 -6,2l-3 0c-1,-2 -2,-6 -2,-11 0,-2 0,-3 0,-5 0,-2 0,-3 0,-5 0,-2 1,-4 1,-6 0,-2 0,-4 0,-6l0 -19c0,-3 0,-6 0,-9 0,-3 0,-6 0,-10 0,-5 0,-10 0,-15 0,-5 0,-10 0,-15 0,-4 -1,-9 -1,-15 0,-6 0,-11 0,-15l0 -17c-3,3 -8,5 -13,7 -5,2 -11,3 -17,3 -9,0 -17,-3 -24,-8 -7,-5 -13,-13 -17,-23 -3,-9 -5,-17 -6,-25 -1,-8 -2,-17 -3,-26l0 -18c0,-3 0,-6 0,-10 0,-3 0,-7 0,-10 0,-6 0,-12 0,-17 0,-6 0,-11 1,-17 2,-15 7,-28 15,-37 8,-10 18,-14 31,-14l7 0c13,0 22,3 28,10 5,6 10,17 13,33l0 0zm-14 87c0,-8 1,-16 1,-23 0,-8 0,-15 0,-23 0,-5 0,-9 0,-13 0,-4 0,-8 -1,-13 0,-11 -1,-21 -4,-30 -3,-9 -9,-16 -17,-19 -1,-1 -2,-1 -5,-2 -2,-1 -4,-1 -5,-1 -7,0 -13,3 -18,8 -6,5 -10,12 -13,20 -3,7 -4,14 -5,21 0,7 -1,15 -1,23 0,13 0,24 0,35 0,11 1,21 1,31 1,10 3,19 5,25 3,6 7,12 13,19l0 0c7,7 14,10 19,10 3,0 7,-1 10,-4 3,-3 7,-6 11,-11 3,-5 5,-11 6,-17 1,-6 1,-13 1,-20 0,-3 0,-5 0,-8 0,-3 0,-5 1,-8l0 0zm61 55c3,0 5,0 7,1 1,1 2,1 3,2 1,1 1,2 2,2 0,1 1,1 1,3 0,1 0,3 0,4l0 1c-1,3 -3,4 -5,5 -9,-2 -13,-6 -13,-13 0,-1 1,-1 1,-2 1,-1 1,-1 2,-2l3 -2 0 1zm175 -208c0,2 0,5 0,7 0,2 0,4 0,7l0 13c0,4 -1,9 -1,13 0,5 0,9 0,14l0 7c0,1 0,3 0,4 0,1 0,3 0,5l0 19c0,4 0,7 0,11 0,4 0,7 0,12l0 52c0,20 1,36 2,48 0,2 1,3 1,5 0,2 0,3 0,4 0,2 0,3 0,4 0,1 0,1 0,2 0,0 -1,1 -2,1 -1,0 -2,1 -3,1 -2,0 -3,0 -5,-1 -2,0 -3,-1 -3,-1l-3 -87 0 -75c0,-3 0,-5 0,-8 0,-3 0,-5 0,-8l0 -13c0,-2 0,-5 0,-7 0,-3 0,-5 0,-8l1 -43c-3,9 -7,19 -10,29 -3,10 -6,19 -8,28 -1,3 -2,7 -3,11 -1,5 -2,10 -3,15 -2,8 -4,15 -7,23 -3,7 -6,13 -11,18 -4,-2 -7,-5 -10,-10 -3,-5 -5,-11 -7,-17l0 0c-5,-12 -9,-23 -13,-33 -3,-10 -7,-20 -10,-30l-5 -14c-1,-4 -2,-9 -4,-15 -1,-6 -3,-11 -5,-17l0 1c1,18 1,34 2,50 0,16 1,30 1,42l0 81c0,5 0,10 0,15 0,4 0,9 -1,14l0 3c0,4 -1,9 -1,13 0,4 0,9 0,14l2 24 0 2c0,0 0,1 0,1 0,0 0,1 0,1 0,1 -1,2 -3,2 2,0 1,0 -2,1 -1,0 -3,0 -4,-1 -2,0 -3,-1 -3,-1 0,-5 -1,-11 -1,-17 0,-6 0,-12 0,-19 0,-7 0,-14 0,-20 0,-6 0,-12 1,-17 0,-5 1,-10 1,-15 0,-5 0,-11 0,-16l0 -61c0,-7 0,-14 0,-20 0,-6 0,-12 -1,-18 0,-18 -2,-35 -3,-52 0,-1 0,-3 0,-4 0,-2 0,-3 0,-5 0,-2 0,-4 0,-5 0,-1 0,-1 0,-2 0,0 1,0 1,-1 1,-1 1,-1 2,-2 1,-1 1,-1 2,-1 0,0 2,-1 5,-1l3 0c2,0 4,1 6,2 2,2 3,5 5,10l8 25 0 0c2,4 3,7 5,11 1,4 2,7 3,10l0 0c0,0 0,1 0,1 0,1 0,2 1,3 0,2 1,4 2,7 1,3 2,7 4,13l17 51 0 0 1 -1 0 0 3 -13c5,-12 8,-23 11,-33 3,-10 5,-18 7,-25 0,-1 1,-2 1,-4 3,-13 7,-24 12,-32 2,-4 3,-8 5,-11 1,-3 2,-7 2,-9 0,-3 2,-4 3,-4 2,0 4,0 6,1 3,0 4,1 5,1l2 51zm99 155c0,6 0,13 1,20 1,8 1,15 1,21 0,4 0,8 -1,12 -1,4 -2,7 -5,10 -3,3 -7,5 -12,7 -5,2 -13,3 -23,3l-3 0c-5,-1 -10,-3 -14,-5 -4,-3 -8,-6 -11,-10 -3,-4 -5,-9 -7,-14 -2,-5 -2,-10 -2,-15 0,-15 3,-28 10,-38 7,-10 19,-17 37,-22 0,0 1,0 3,0 2,0 4,-1 6,-1 2,-1 4,-2 5,-4 2,-2 2,-5 2,-9l0 -32c0,0 0,-1 0,-1 0,0 0,-1 0,-1l0 -2c0,-4 0,-9 -1,-14 -1,-5 -2,-10 -3,-14 -1,-4 -3,-8 -5,-11 -2,-3 -5,-4 -8,-4 -2,0 -3,1 -6,2 -2,1 -5,3 -7,4 -2,2 -5,4 -7,6 -2,2 -4,4 -5,6 -2,2 -3,3 -5,5 -2,2 -3,2 -6,2 -3,0 -4,-2 -4,-5 0,-5 2,-9 5,-12 3,-4 7,-7 11,-9 4,-3 9,-4 13,-6 4,-1 8,-2 10,-2 6,0 11,2 16,6 4,4 8,9 10,15 2,6 4,14 5,22 1,8 1,17 1,27 0,6 0,12 0,19 0,7 0,14 0,20l0 24zm-19 62c3,-2 6,-5 7,-10 1,-5 1,-10 1,-15 0,-3 0,-6 0,-11 0,-5 0,-9 -1,-14 0,-5 0,-9 -1,-13 0,-4 0,-6 0,-7l0 -13c-8,0 -16,1 -24,4 -8,3 -15,9 -20,18l0 0c-2,4 -3,8 -4,13 -1,5 -1,10 -1,15 0,4 0,7 1,11 1,4 2,7 4,9l0 0c5,5 9,9 10,12 2,2 6,4 12,4l3 0c1,0 3,0 5,-1 2,-1 5,-1 8,-3zm103 -188c3,2 5,3 7,5 2,2 3,3 5,6 0,0 0,0 0,0 0,0 0,0 0,0l0 0c-2,1 -4,2 -5,2 -5,0 -7,0 -7,-1 0,-1 0,-1 -1,-2l0 0c-1,0 -2,-1 -3,-2 -3,-2 -6,-3 -10,-5 -3,-1 -6,-2 -8,-2l-2 0c-7,3 -11,7 -13,13 -2,6 -3,13 -3,19 0,4 -1,7 -1,11 0,4 0,7 0,11 0,7 0,13 0,20 0,6 0,13 1,20 0,7 0,13 0,20 0,6 0,13 0,19 0,9 0,18 -1,28 0,10 -1,19 -2,28 -1,3 -2,5 -5,5 -2,0 -3,0 -5,-1 -2,-1 -2,-3 -3,-4 0,-1 0,-3 0,-5l0 -48c0,-7 0,-14 1,-21 0,-7 1,-14 1,-21 0,-6 0,-13 0,-19 0,-6 0,-12 -1,-19l0 -10c0,-2 0,-4 0,-6 0,-2 0,-4 0,-6 0,-4 0,-8 1,-12 1,-4 2,-8 4,-11 3,-6 7,-10 13,-14 6,-3 12,-5 18,-5 9,0 15,2 20,7l0 1zm12 11c0,1 0,1 0,1 0,0 0,1 0,1l0 -2c0,0 0,0 0,0 0,0 0,0 0,0zm1 0c0,0 -1,0 -1,0 0,0 1,0 1,0 0,0 -1,0 -1,0l0 0 1 0 0 1zm19 54c0,-7 0,-14 0,-21 0,-7 0,-14 0,-19 0,-6 0,-11 0,-15 0,-4 0,-7 0,-9 0,-6 3,-10 8,-10 1,0 2,0 3,1 1,1 2,2 2,3l0 89c0,17 0,31 0,42 0,11 0,20 0,29l0 33c0,6 -3,10 -8,10 -1,0 -2,0 -3,-1 -1,-1 -2,-2 -2,-3l0 -128zm9 -113c-1,0 -2,0 -4,0 -1,0 -3,-1 -4,-2 -1,-1 -2,-3 -3,-6 -1,-3 -1,-6 -1,-11 0,-5 0,-10 1,-14 1,-5 2,-7 4,-7 2,0 4,1 6,3 2,2 3,5 3,8 0,2 1,5 1,9 0,4 1,8 1,12 0,3 0,5 -1,7 -1,2 -2,3 -3,3zm113 202c2,2 3,5 3,9 0,8 -1,14 -3,18 -2,4 -4,8 -7,10 -3,3 -7,4 -11,5 -4,1 -9,2 -14,2 -7,0 -15,-2 -23,-5 -8,-3 -13,-9 -16,-19l-1 -2c-2,-3 -3,-8 -5,-16 -1,-8 -2,-17 -3,-26 -1,-10 -1,-20 -1,-30 0,-10 0,-19 0,-27 0,-16 1,-29 2,-40 2,-11 4,-19 7,-26 3,-6 7,-11 12,-14 5,-3 11,-4 18,-4 8,0 15,1 20,4 5,3 9,8 12,14 3,7 5,16 6,28 1,12 2,27 3,45 -1,3 -5,4 -10,4 -2,0 -5,0 -11,0 -6,0 -16,0 -30,-1 -3,0 -6,0 -8,0 -3,0 -5,0 -7,1l0 6c0,2 0,3 0,5 0,2 0,3 0,5 0,15 0,28 1,39 1,11 2,20 5,28 3,7 6,13 12,17 5,4 12,6 22,6 3,0 6,0 8,-1 2,-1 3,-2 4,-4 1,-2 2,-5 3,-8 1,-4 2,-8 4,-13l0 -2c1,-4 4,-6 8,-6l0 -1zm-58 -143c-3,6 -5,13 -6,20 -1,7 -2,14 -2,21 0,4 0,8 0,11 0,4 0,7 1,11l0 3c4,0 8,0 13,0 5,0 11,0 17,1 3,0 7,0 12,0 5,0 8,0 9,0l0 -4c0,-17 0,-30 -1,-40 -1,-10 -3,-17 -5,-23 -2,-5 -5,-8 -8,-10 -3,-1 -7,-2 -10,-2l-3 0c-3,1 -6,1 -9,3 -3,1 -5,4 -8,9l0 0z"/>
   <g>
    <path class="fil1" d="M507 332l-11 -29 -11 29 22 0zm-39 25l0 -4 5 0 21 -55 6 0 20 55 5 0 0 4 -18 0 0 -4 8 0 -6 -17 -25 0 -6 17 8 0 0 4 -18 0zm59 0l0 -3 6 0 0 -34 -6 0 0 -3 10 0 0 8 0 0c1,-3 2,-5 4,-7 2,-2 4,-2 6,-2 1,0 2,0 3,0l0 4c-1,0 -2,0 -3,0 -7,0 -10,6 -10,17l0 17 8 0 0 3 -18 0zm68 -40l0 3 -7 0 0 49 7 0 0 3 -18 0 0 -3 7 0 0 -20 0 0c-3,6 -7,9 -13,9 -5,0 -9,-2 -12,-6 -3,-4 -4,-9 -4,-15 0,-4 1,-8 2,-11 1,-3 3,-6 5,-8 2,-2 5,-3 9,-3 6,0 10,3 13,9l0 0 0 -9 11 0zm-11 20c0,-5 -1,-9 -3,-12 -2,-4 -5,-5 -9,-5 -3,0 -5,1 -7,2 -2,2 -3,4 -4,7 -1,3 -1,6 -1,9 0,5 1,9 3,12 2,3 5,5 9,5 4,0 7,-2 9,-5 2,-4 3,-8 3,-12zm49 -20l0 37 7 0 0 3 -11 0 0 -7 0 0c-2,5 -6,8 -12,8 -5,0 -8,-1 -10,-3 -2,-2 -3,-6 -3,-12l0 -23 -6 0 0 -3 10 0 0 26c0,4 1,7 2,9 2,2 4,3 8,3 3,0 6,-1 8,-4 2,-2 3,-6 3,-9l0 -21 -7 0 0 -3 11 0zm11 40l0 -3 8 0 0 -34 -8 0 0 -3 12 0 0 37 7 0 0 3 -19 0zm12 -57l0 6 -5 0 0 -6 5 0zm32 16l0 3 -12 0 0 24c0,3 0,6 1,8 1,2 2,2 4,2 2,0 4,-1 4,-2 1,-2 1,-4 1,-7l4 0c0,4 -1,8 -2,10 -1,2 -4,3 -7,3 -6,0 -8,-4 -8,-13l0 -25 -7 0 0 -3 7 0 0 -10 4 -2 0 11 12 0zm41 21l-30 0c0,5 1,9 3,12 2,3 6,5 10,5 3,0 6,-1 8,-3 2,-2 4,-4 4,-7l4 0c0,4 -2,7 -5,10 -3,2 -7,4 -11,4 -6,0 -10,-2 -14,-6 -3,-4 -5,-9 -5,-16 0,-6 2,-11 5,-15 3,-4 7,-6 13,-6 6,0 10,2 13,6 3,4 4,9 4,16zm-30 -3l25 0c0,-5 -1,-8 -3,-11 -2,-3 -5,-4 -9,-4 -4,0 -7,1 -9,4 -2,3 -4,7 -4,11zm57 -18l0 3 -12 0 0 24c0,3 0,6 1,8 1,2 2,2 4,2 2,0 4,-1 4,-2 1,-2 1,-4 1,-7l4 0c0,4 -1,8 -2,10 -1,2 -4,3 -7,3 -6,0 -8,-4 -8,-13l0 -25 -7 0 0 -3 7 0 0 -10 4 -2 0 11 12 0zm39 0l0 37 7 0 0 3 -11 0 0 -7 0 0c-2,5 -6,8 -12,8 -5,0 -8,-1 -10,-3 -2,-2 -3,-6 -3,-12l0 -23 -6 0 0 -3 10 0 0 26c0,4 1,7 2,9 2,2 4,3 8,3 3,0 6,-1 8,-4 2,-2 3,-6 3,-9l0 -21 -7 0 0 -3 11 0zm11 40l0 -3 6 0 0 -34 -6 0 0 -3 10 0 0 8 0 0c1,-3 2,-5 4,-7 2,-2 4,-2 6,-2 1,0 2,0 3,0l0 4c-1,0 -2,0 -3,0 -7,0 -10,6 -10,17l0 17 8 0 0 3 -18 0zm55 0l0 -8 0 0c-1,3 -3,5 -5,7 -2,2 -5,2 -8,2 -4,0 -7,-1 -9,-3 -2,-2 -4,-5 -4,-10 0,-3 1,-6 3,-8 2,-2 4,-3 7,-4 3,-1 6,-1 9,-1l8 0 0 -3c0,-7 -3,-11 -10,-11 -6,0 -10,3 -11,9l-5 0c1,-8 6,-12 15,-12 5,0 9,1 11,3 2,2 4,6 4,11l0 24 6 0 0 3 -10 0zm-22 -12c0,3 1,5 3,7 2,2 4,3 7,3 5,0 8,-2 10,-5 2,-3 3,-8 3,-13l-8 0c-9,0 -14,3 -14,9z"/>
    <path class="fil1" d="M603 417l-17 -19c-7,4 -11,8 -11,14 0,4 1,7 4,9 2,2 5,3 9,3 3,0 6,-1 8,-2 3,-1 5,-3 6,-6zm-23 -37c0,1 0,2 1,3 0,1 1,2 2,3 1,1 2,2 3,4 1,1 2,2 2,2 2,-1 4,-3 5,-4 1,-1 2,-2 3,-4 1,-1 1,-3 1,-5 0,-3 -1,-5 -2,-6 -2,-2 -4,-2 -6,-2 -2,0 -3,0 -4,1 -1,1 -3,2 -3,3 -1,1 -1,3 -1,5zm42 13l0 4 -7 0c0,7 -2,14 -6,19l6 7 8 0 0 4 -11 0 -7 -8c-4,6 -10,9 -17,9 -3,0 -6,-1 -9,-2 -3,-1 -5,-3 -6,-6 -2,-3 -2,-6 -2,-9 0,-4 1,-7 3,-10 2,-3 5,-5 9,-7 -3,-3 -5,-5 -6,-7 -1,-2 -2,-4 -2,-7 0,-4 1,-7 4,-9 3,-2 6,-3 10,-3 4,0 7,1 9,3 3,2 4,5 4,9 0,4 -1,7 -3,9 -2,2 -5,5 -9,7l15 17c3,-4 4,-10 4,-16l-6 0 0 -4 18 0zm10 34l0 -4 7 0 0 -51 -7 0 0 -4 19 0c9,0 16,2 21,7 5,4 8,12 8,22 0,11 -2,19 -7,23 -5,5 -12,7 -22,7l-19 0zm12 -55l0 51 6 0c6,0 10,-1 14,-3 4,-2 6,-5 8,-8 2,-4 3,-9 3,-15 0,-9 -2,-15 -6,-19 -4,-4 -10,-6 -19,-6l-6 0zm78 36l-30 0c0,5 1,9 3,12 2,3 6,5 10,5 3,0 6,-1 8,-3 2,-2 4,-4 4,-7l4 0c0,4 -2,7 -5,10 -3,2 -7,4 -11,4 -6,0 -10,-2 -14,-6 -3,-4 -5,-9 -5,-16 0,-6 2,-11 5,-15 3,-4 7,-6 13,-6 6,0 10,2 13,6 3,4 4,9 4,16zm-30 -3l25 0c0,-5 -1,-8 -3,-11 -2,-3 -5,-4 -9,-4 -4,0 -7,1 -9,4 -2,3 -4,7 -4,11zm36 23l0 -14 4 0c0,4 2,6 4,8 2,2 5,3 8,3 3,0 5,-1 7,-2 2,-1 3,-4 3,-7 0,-3 -1,-4 -3,-5 -2,-1 -5,-2 -9,-2 -4,-1 -7,-2 -9,-3 -2,-1 -3,-4 -3,-8 0,-3 1,-5 2,-6 1,-2 3,-3 5,-4 2,-1 4,-1 7,-1 2,0 4,0 6,1 2,1 3,2 4,4l0 0 0 -5 4 0 0 13 -4 0c0,-7 -4,-11 -11,-11 -2,0 -5,1 -6,2 -2,1 -3,3 -3,6 0,2 1,4 3,5 2,1 5,2 9,2 4,1 7,2 10,4 2,2 3,4 3,8 0,4 -1,7 -4,9 -3,2 -6,3 -10,3 -5,0 -9,-2 -12,-7l0 0 0 6 -4 0zm35 0l0 -3 8 0 0 -34 -8 0 0 -3 12 0 0 37 7 0 0 3 -19 0zm12 -57l0 6 -5 0 0 -6 5 0zm52 16l0 3 -6 0 0 34c0,4 -1,8 -2,10 -1,3 -3,5 -5,6 -2,1 -6,2 -10,2 -4,0 -8,-1 -11,-3 -3,-2 -5,-5 -5,-9l4 0c1,6 5,8 11,8 3,0 6,-1 8,-2 2,-1 3,-3 4,-6 1,-3 1,-6 1,-9l0 -4 0 0c-3,6 -7,8 -13,8 -5,0 -9,-2 -12,-6 -3,-4 -5,-9 -5,-14 0,-4 1,-7 2,-10 1,-3 3,-6 6,-8 3,-2 6,-3 9,-3 6,0 11,3 13,8l0 0 0 -7 10 0zm-36 19c0,5 1,9 3,13 2,3 5,5 10,5 4,0 8,-2 10,-5 2,-3 3,-8 3,-13 0,-5 -1,-9 -3,-12 -2,-3 -5,-5 -9,-5 -3,0 -5,1 -7,2 -2,2 -3,4 -4,6 -1,3 -2,5 -2,8zm39 22l0 -3 6 0 0 -34 -6 0 0 -3 11 0 0 6 0 0c1,-2 3,-4 5,-5 2,-1 4,-2 7,-2 6,0 9,2 11,5 2,3 2,7 2,13l0 3 0 17 6 0 0 3 -17 0 0 -3 6 0 0 -17c0,-4 0,-7 -1,-10 0,-2 -1,-4 -3,-5 -1,-1 -3,-2 -6,-2 -8,0 -11,6 -11,17l0 17 6 0 0 3 -17 0z"/>
   </g>
  </g>
 </g>
</svg>
